<svg xmlns="http://www.w3.org/2000/svg" viewBox="0 0 100 100">
  <rect width="100" height="100" rx="22" fill="#2F6D6B"/>
  <g fill="#fbfaf7" transform="translate(14 16) scale(0.72)">
    <ellipse cx="30" cy="32" rx="9" ry="12" transform="rotate(-18 30 32)"/>
    <ellipse cx="50" cy="24" rx="9" ry="13"/>
    <ellipse cx="70" cy="32" rx="9" ry="12" transform="rotate(18 70 32)"/>
    <path d="M50 46c-13 0-23 9-23 21 0 9 7 14 15 14 4 0 6-2 8-2s4 2 8 2c8 0 15-5 15-14 0-12-10-21-23-21z"/>
  </g>
</svg>
